# Blender v2.78 (sub 0) OBJ File: 'plane.blend'
# www.blender.org
o Plane
v -17.858849 0.000000 17.858849
v 17.858849 0.000000 17.858849
v -17.858849 0.000000 -17.858849
v 17.858849 0.000000 -17.858849
vt 0.9999 0.0001
vt 0.0001 0.9999
vt 0.0001 0.0001
vt 0.9999 0.9999
vn 0.0000 1.0000 0.0000
vtan 1.000000 0.000000 -0.000000
vtan 1.000000 0.000000 -0.000000
vtan 1.000000 0.000000 -0.000000
vtan 1.000000 0.000000 0.000000
vtan 1.000000 0.000000 0.000000
vtan 1.000000 0.000000 0.000000
# 6 tangents (Gen by glb_tbn_gen)

vbi 0.000000 0.000000 -1.000000
vbi 0.000000 0.000000 -1.000000
vbi 0.000000 0.000000 -1.000000
vbi 0.000000 0.000000 -1.000000
vbi 0.000000 0.000000 -1.000000
vbi 0.000000 0.000000 -1.000000
# 6 binormals (Gen by glb_tbn_gen)

s off
f 2/1/1/1/1 3/2/1/2/2 1/3/1/3/3
f 2/1/1/4/4 4/4/1/5/5 3/2/1/6/6

# Reorganize by glb_tbn_gen

talbedo bathroomtile_basecolor.dds
tnormal bathroomtile_normal.dds
